# xmcd
#
# Track frame offsets: 
#        150
#        1192
#        12384
#        24638
#        37724
#        49713
#        62619
#        75936
#        79337
#        89349
#        105061
#        118149
#        128045
#        137517
#        151244
#        161890
#        169380
#        179465
#        191523
#        204099
#        213690
#        226420
#        237932
#
# Disc length: 3503 seconds
#
# Revision: 2
# Processed by: cddbd v1.5.2PL0 Copyright (c) Steve Scherf et al.
# Submitted via: ExactAudioCopy v0.99pb3
#
DISCID=1d0dad17
DTITLE=Various Artist - Blue Flamingo 78 r.p.m. Blues, R&B, Hot Jazz,
DTITLE=Rumba Negra and Exotica. Three musical journeys compiled by Ziya
DTITLE=Ertekin alias Blue Flamingo
DYEAR=2008
DGENRE=Jazz
TTITLE0=Intro/Welcome to the Cashbah
TTITLE1=Sidney Bechet's Circle Seven/Casbah
TTITLE2=Duke Ellington and his Cotton Club Orchestra/Arabian Lover
TTITLE3=Lil Armstrong and her Swing Orchestra/Oriental Swing
TTITLE4=Mill's Blue Rhythm Band/Congo Caravan
TTITLE5=Fats Waller and his Rhythm/Abdullah
TTITLE6=John Kirby and his Orchestra/Dawn On The Desert
TTITLE7=Jelly Roll Morton/Intro: The Spanish Tinge
TTITLE8=Alphonso et son Ochestre Typique Antillais/Mettezi I Dero
TTITLE9=Don Azpiazu and his Havana Casino Orchestra/El Manicero
TTITLE10=Lionel Balesco y su Orquesta/Juliana
TTITLE11=Wilmoth Houdini and his Royal Calypso Orchestra/The Welcome of 
TTITLE11=their Majesties
TTITLE12=Alphonso et son Orchestre Typique Antillais/Chain la Lou
TTITLE13=Lecuona Cuban Boys/Rumba Tambah
TTITLE14=Charles Brown/Hot Lips and Seven Kisses
TTITLE15=Lloyd Glenn/Ugh
TTITLE16=The Moonglow's/Tempting
TTITLE17=Otis Blackwell/Daddy Rollin' Stone
TTITLE18=Joe Liggins and his Honeydrippers/Going Back To New Orleans 
TTITLE19=Christine Kittrell/You Ain't Nothing But Trouble
TTITLE20=Kid King's Combo/The Sneak
TTITLE21=Big Maybelle/That's a Pretty Good Love 
TTITLE22=Vin Strong/Swinging the Mambo
EXTD=YEAR: 2008
EXTT0=
EXTT1=
EXTT2=
EXTT3=
EXTT4=
EXTT5=
EXTT6=
EXTT7=
EXTT8=
EXTT9=
EXTT10=
EXTT11=
EXTT12=
EXTT13=
EXTT14=
EXTT15=
EXTT16=
EXTT17=
EXTT18=
EXTT19=
EXTT20=
EXTT21=
EXTT22=
PLAYORDER=
